<svg width="80" height="80" viewBox="0 0 80 80" fill="none" xmlns="http://www.w3.org/2000/svg">
<ellipse cx="39" cy="64.5" rx="36" ry="5.5" fill="#F9FAFB"/>
<path d="M40.0016 18.1689L68.9586 14.0334C70.2323 13.8499 71.471 14.5674 71.9501 15.7675L75.8297 25.4666C76.6711 27.5583 75.4792 29.9071 73.2005 30.4797L53.7089 35.5629C51.7807 36.0537 49.7591 35.2825 48.649 33.6465L40.0016 20.7876L31.2491 33.6465C30.2442 35.2942 28.2225 36.0537 26.2944 35.5629L6.70233 30.4797C4.52179 29.9071 3.33232 27.5583 4.16889 25.4666L8.04968 15.7675C8.52996 14.5674 9.7698 13.8499 11.0505 14.0334L40.0016 18.1689ZM5.90537 26.1677C5.48703 27.2077 6.08182 28.388 7.17209 28.6684L26.7618 33.7517C27.9187 34.0438 29.0289 33.5881 29.8001 32.5948L38.389 19.8283L10.7853 15.8844C10.3588 15.8236 9.94509 16.062 9.78499 16.4628L5.90537 26.1677ZM41.6143 19.8283L50.2032 32.5948C50.8693 33.5881 52.0846 34.0438 53.2414 33.7517L72.8265 28.6684C73.925 28.388 74.5209 27.2077 74.1003 26.1677L70.2206 16.4628C70.057 16.062 69.648 15.8236 69.2157 15.8844L41.6143 19.8283ZM68.0471 35.3292L69.9168 34.8034V54.3067C69.9168 56.8775 68.164 59.1211 65.6632 59.7522L41.3572 65.8287C40.3639 66.0507 39.5342 66.0507 38.6461 65.8287L14.34 59.7522C11.8382 59.1211 9.98131 56.8775 9.98131 54.3067V34.8034L11.851 35.3292V54.3067C11.851 56.0244 13.1236 57.5202 14.7841 57.9409L38.9616 64.0057V33.3427C38.9616 32.9337 39.4875 32.4078 39.8965 32.4078C40.5158 32.4078 40.9365 32.9337 40.9365 33.3427V64.0057L65.2192 57.9409C66.8785 57.5202 68.0471 56.0244 68.0471 54.3067V35.3292Z" fill="#DCDFE4"/>
</svg>
