<svg width="20" height="20" viewBox="0 0 20 20" fill="none" xmlns="http://www.w3.org/2000/svg">
<path d="M0.529294 2.67388L2.76126 3.03842C2.78189 3.03842 2.79565 3.05562 2.79909 3.07626L3.19802 5.44578C3.2049 5.49737 3.27712 5.49737 3.28744 5.44578L3.75171 3.09001C3.75515 3.07282 3.76891 3.05562 3.78954 3.05218L5.86674 2.67388C5.91489 2.66357 5.91833 2.59478 5.86674 2.58447L3.7861 2.1821C3.76891 2.17866 3.75515 2.1649 3.75171 2.1477L3.28744 0.0361103C3.27712 -0.0120368 3.20834 -0.0120368 3.19802 0.0361103L2.79909 2.0858C2.79565 2.103 2.78189 2.11675 2.76469 2.12019L0.525856 2.57759C0.477709 2.58791 0.477709 2.66013 0.525856 2.667L0.529294 2.67388Z" fill="#5746AF"/>
<path d="M1.01765 12.9327L2.48269 13.1699L2.74062 14.7141L3.04326 13.1803L4.41201 12.9292L3.04326 12.6644L2.74062 11.2922L2.48269 12.6335L1.01765 12.9327Z" fill="#5746AF"/>
<path d="M12.7449 3.5646L15.3001 4.42781L16.1462 7.07934C16.153 7.10342 16.1874 7.10342 16.1977 7.07934L17.171 4.43125L19.4924 3.56117C19.5164 3.55429 19.5164 3.5199 19.4924 3.51302L17.171 2.60166L16.1977 0.280285C16.1874 0.25965 16.1565 0.25965 16.1496 0.280285L15.3036 2.54664L12.7483 3.51302C12.7243 3.52334 12.7243 3.55429 12.7483 3.5646H12.7449Z" fill="#5746AF"/>
<path fill-rule="evenodd" clip-rule="evenodd" d="M7.50332 6.01265C6.81599 6.45204 6.61542 7.36607 7.05533 8.0542L14.2555 19.3171C14.6954 20.0052 15.6092 20.2069 16.2965 19.7675C16.9838 19.3281 17.1844 18.414 16.7445 17.7259L9.54435 6.46301C9.10444 5.77489 8.19064 5.57325 7.50332 6.01265ZM8.0837 6.90988C7.87886 7.04083 7.81897 7.31304 7.94991 7.51788L9.02984 9.20717C9.16079 9.412 9.433 9.4719 9.63784 9.34095C9.84268 9.21001 9.90257 8.9378 9.77163 8.73296L8.69169 7.04367C8.56075 6.83883 8.28854 6.77893 8.0837 6.90988Z" fill="#5746AF"/>
</svg>
